{"title":"Ghost.Note.2017.1080p.WEBRip.x264-iNTENSO","magnet":"magnet:?xt=urn:btih:84c01c5d617da124fe829bcc69a1fab1cfe82125&dn=Ghost.Note.2017.1080p.WEBRip.x264-iNTENSO&tr=udp%3A%2F%2Ftracker.leechers-paradise.org%3A6969&tr=udp%3A%2F%2Fzer0day.ch%3A1337&tr=udp%3A%2F%2Fopen.demonii.com%3A1337&tr=udp%3A%2F%2Ftracker.coppersurfer.tk%3A6969&tr=udp%3A%2F%2Fexodus.desync.com%3A6969","uploader":"rarvia","categoryP":"video","categoryS":"hd___movies","size":"3449869463","seeders":"5","leechers":"11","description":"Check Screenshots before Download\r\n\r\nScreenshots:\r\n <a href=\"\nhttp://imgcouch.com/image/vEQ\" rel=\"nofollow\" target=\"_NEW\">\nhttp://imgcouch.com/image/vEQ</a>\r\n\r\nIMDB: http://www.imdb.com/title/tt5109302/\r\n\r\nVideo\r\nID                                       : 1\r\nFormat                                   : AVC\r\nFormat/Info                              : Advanced Video Codec\r\nFormat profile                           : <a class=\"__cf_email__\" href=\"/cdn-cgi/l/email-protection\" data-cfemail=\"cc84a5aba48c80f8e2fd\">[email&#xA0;protected]</a><script data-cfhash=\"f9e31\" type=\"text/javascript\">/* <![CDATA[ */!function(t,e,r,n,c,a,p){try{t=document.currentScript||function(){for(t=document.getElementsByTagName('script'),e=t.length;e--;)if(t[e].getAttribute('data-cfhash'))return t[e]}();if(t&&(c=t.previousSibling)){p=t.parentNode;if(a=c.getAttribute('data-cfemail')){for(e='',r='0x'+a.substr(0,2)|0,n=2;a.length-n;n+=2)e+='%'+('0'+('0x'+a.substr(n,2)^r).toString(16)).slice(-2);p.replaceChild(document.createTextNode(decodeURIComponent(e)),c)}p.removeChild(t)}}catch(u){}}()/* ]]> */</script>\r\nFormat settings, CABAC                   : Yes\r\nFormat settings, ReFrames                : 5 frames\r\nCodec ID                                 : V_MPEG4/ISO/AVC\r\nDuration                                 : 1h 42mn\r\nBit rate                                 : 4 291 Kbps\r\nWidth                                    : 1 920 pixels\r\nHeight                                   : 824 pixels\r\nDisplay aspect ratio                     : 2.35:1\r\nFrame rate mode                          : Constant\r\nFrame rate                               : 23.976 (24000/1001) fps\r\nColor space                              : YUV\r\nChroma subsampling                       : 4:2:0\r\nBit depth                                : 8 bits\r\nScan type                                : Progressive\r\nBits/(Pixel*Frame)                       : 0.113\r\nStream size                              : 3.08 GiB (96%)\r\nLanguage                                 : English\r\nDefault                                  : Yes\r\nForced                                   : No\r\n\r\nAudio\r\nID                                       : 2\r\nFormat                                   : AAC\r\nFormat/Info                              : Advanced Audio Codec\r\nFormat profile                           : LC\r\nCodec ID                                 : A_AAC\r\nDuration                                 : 1h 42mn\r\nBit rate                                 : 192 Kbps\r\nChannel(s)                               : 2 channels\r\nChannel positions                        : Front: L R\r\nSampling rate                            : 48.0 KHz\r\nFrame rate                               : 46.875 fps (1024 spf)\r\nCompression mode                         : Lossy\r\nStream size                              : 138 MiB (4%)\r\nLanguage                                 : English\r\nDefault                                  : Yes\r\nForced                                   : No","last_updated":"2017-08-10T12:01:00.436Z","parsed":{"xt":"urn:btih:84c01c5d617da124fe829bcc69a1fab1cfe82125","dn":"Ghost.Note.2017.1080p.WEBRip.x264-iNTENSO","tr":["udp://exodus.desync.com:6969","udp://open.demonii.com:1337","udp://tracker.coppersurfer.tk:6969","udp://tracker.leechers-paradise.org:6969","udp://zer0day.ch:1337"],"infoHash":"84c01c5d617da124fe829bcc69a1fab1cfe82125","infoHashBuffer":{"type":"Buffer","data":[132,192,28,93,97,125,161,36,254,130,155,204,105,161,250,177,207,232,33,37]},"name":"Ghost.Note.2017.1080p.WEBRip.x264-iNTENSO","announce":["udp://exodus.desync.com:6969","udp://open.demonii.com:1337","udp://tracker.coppersurfer.tk:6969","udp://tracker.leechers-paradise.org:6969","udp://zer0day.ch:1337"],"urlList":[]}}